<svg viewBox="0 0 512 512" xml:space="preserve" xmlns="http://www.w3.org/2000/svg"><path d="M259 507.2C120.4 507.9 6.7 392.7 9.9 252.1c3-134 114.1-245 252.4-243.4 136.6 1.6 249.4 115.4 245.8 256-3.4 133.4-113.4 243.1-249.1 242.5zm-218.8-249C41.3 383.5 142.6 479.8 262.4 478c116.2-1.8 215.2-96.4 215.3-220 0-125.2-102.1-222-222.2-220C139.1 39.9 41 134.7 40.2 258.2z" fill="#0d6efd" class="fill-000000"></path><path d="M326.6 375.6v-6.1c0-26.7.1-53.3-.1-80 0-4.6-.4-9.4-1.5-13.8-3.6-14.8-15.6-22.2-32.9-20.8-12.8 1-24.3 12.4-25.2 25.6-.6 8-.4 16-.5 24-.1 21.7 0 43.3 0 65v6.2h-48.1V219.3H266v19.8c1.7-2 2.7-3 3.4-4.2 21.6-32.4 80.2-28.9 97.6 9.3 4.8 10.6 7.7 21.7 7.8 33.3.3 32.1.2 64.3.2 96.5 0 .5-.1 1-.3 1.8-15.8-.2-31.7-.2-48.1-.2zM187.5 375.8h-47.7V220.2h47.7v155.6zM162.2 189c-14.3-.1-24.3-10.5-24.2-24.9s10.5-24.3 25.4-24.2c14.2.1 24.5 10.6 24.3 24.9 0 14.2-10.7 24.3-25.5 24.2z" fill="#0d6efd" class="fill-000000"></path></svg>