<svg viewBox="0 0 50 50" xmlns="http://www.w3.org/2000/svg"><path d="M25 50c13.807 0 25-11.193 25-25S38.807 0 25 0 0 11.193 0 25s11.193 25 25 25Zm0-3c12.15 0 22-9.85 22-22S37.15 3 25 3 3 12.85 3 25s9.85 22 22 22Zm-.318-26.446.048.822-.795-.1c-2.893-.386-5.42-1.694-7.566-3.892l-1.05-1.09-.27.805c-.572 1.795-.207 3.69.986 4.965.636.704.492.805-.604.385-.382-.134-.716-.234-.747-.184-.112.117.27 1.644.572 2.247.413.839 1.256 1.66 2.178 2.147l.778.386-.921.017c-.89 0-.922.016-.827.369.318 1.09 1.574 2.247 2.973 2.75l.985.352-.858.537a8.66 8.66 0 0 1-4.26 1.241c-.716.017-1.304.084-1.304.134 0 .168 1.94 1.107 3.068 1.476 3.386 1.09 7.408.62 10.428-1.24 2.146-1.326 4.292-3.959 5.293-6.508.54-1.359 1.081-3.84 1.081-5.032 0-.771.048-.872.938-1.794.525-.537 1.018-1.124 1.113-1.292.159-.318.143-.318-.668-.033-1.35.503-1.542.436-.874-.319.493-.537 1.08-1.51 1.08-1.794 0-.05-.238.033-.508.184-.286.168-.922.42-1.399.57l-.858.285-.779-.553c-.43-.302-1.033-.637-1.351-.738-.81-.235-2.05-.201-2.782.067a4.806 4.806 0 0 0-3.1 4.83s-.143-2.13 0 0Zm0 0" fill="#0d6efd" fill-rule="evenodd" class="fill-000000"></path></svg>